:FULLY-SPECIFIED
:FORCE-ALL-JOINTS-BE-3DOF
:DEGREES
227
root 9.0098 16.4589 -3.63662 8.96255 -3.04296 -3.57203
lfemur -47.1668 5.4605 -19.6023
ltibia 32.8617 -0 0
lfoot -11.7041 8.23087 -0.153244
ltoes -8.51992 0 0
rfemur 11.0012 2.91086 25.7635
rtibia 19.4485 -0 0
rfoot -2.13218 6.10867 -0.190774
rtoes -11.5251 0 0
lowerback -6.39756 2.60978 1.09391
upperback -2.03976 3.34634 2.52782
thorax 1.3471 1.68602 2.23454
lowerneck -17.1268 -6.34869 -14.3604
upperneck 15.8495 -8.06283 15.0569
head 9.01719 -3.23109 6.52511
lclavicle 2.53876e-15 -3.50409e-15 -1.16632e-30
lhumerus -49.7928 -6.37315 91.7829
lradius 23.3301 -0 0
lwrist 0.303875 0 0
lhand -9.807 -23.451 -0.0101177
lfingers 7.12502 -0 0
lthumb 16.1697 5.89805 -0.00833492
rclavicle 2.53876e-15 -3.50409e-15 -1.16632e-30
rhumerus -40.8936 9.92053 -84.2869
rradius 47.268 -0 0
rwrist -24.8292 0 0
rhand -31.3736 -25.9089 0.0622501
rfingers 7.12502 -0 0
rthumb -4.64368 -55.8294 0.0594278
228
root 9.05114 16.4532 -3.3986 9.04727 -3.26465 -3.49626
lfemur -47.1895 5.75507 -19.8456
ltibia 33.5645 -0 0
lfoot -11.4096 8.05047 -0.151457
ltoes -8.00007 0 0
rfemur 11.2719 2.80453 25.4231
rtibia 20.0405 -0 0
rfoot -1.19674 6.15137 -0.209197
rtoes -11.706 0 0
lowerback -6.40392 2.61338 1.00869
upperback -2.12393 3.35921 2.4751
thorax 1.26127 1.69299 2.22764
lowerneck -17.1876 -6.33092 -14.3518
upperneck 15.915 -8.03836 15.051
head 9.04531 -3.21695 6.52645
lclavicle 8.40704e-16 -3.7455e-15 -1.0989e-30
lhumerus -49.7543 -6.18022 91.5419
lradius 23.078 -0 0
lwrist -0.242321 0 0
lhand -9.59981 -23.3852 -0.0088822
lfingers 7.12502 -0 0
lthumb 16.3692 5.94712 -0.00733115
rclavicle 8.40704e-16 -3.7455e-15 -1.0989e-30
rhumerus -41.2621 9.82949 -84.4762
rradius 46.8525 -0 0
rwrist -24.643 0 0
rhand -31.2327 -25.7055 0.0622444
rfingers 7.12502 -0 0
rthumb -4.50761 -55.6288 0.0594141
229
root 9.09127 16.4475 -3.16946 9.12966 -3.48146 -3.41846
lfemur -47.1919 6.04776 -20.0897
ltibia 34.265 -0 0
lfoot -11.1162 7.87107 -0.148478
ltoes -7.48307 0 0
rfemur 11.5186 2.70026 25.0802
rtibia 20.6401 -0 0
rfoot -0.274725 6.18651 -0.226892
rtoes -11.8906 0 0
lowerback -6.40959 2.61415 0.921967
upperback -2.20694 3.36835 2.42279
thorax 1.17649 1.6981 2.22173
lowerneck -17.2499 -6.31266 -14.3425
upperneck 15.9822 -8.01311 15.0437
head 9.07408 -3.20245 6.52738
lclavicle -8.44958e-16 -3.97567e-15 -1.02406e-30
lhumerus -49.7045 -5.99361 91.3031
lradius 22.8289 -0 0
lwrist -0.783667 0 0
lhand -9.39382 -23.319 -0.00778552
lfingers 7.12502 -0 0
lthumb 16.5675 5.99655 -0.0064248
rclavicle -8.44958e-16 -3.97567e-15 -1.02406e-30
rhumerus -41.631 9.73692 -84.6628
rradius 46.4347 -0 0
rwrist -24.456 0 0
rhand -31.0914 -25.502 0.0617186
rfingers 7.12502 -0 0
rthumb -4.37116 -55.428 0.0589048
230
root 9.12997 16.4418 -2.95036 9.20931 -3.69277 -3.33875
lfemur -47.1737 6.33733 -20.3341
ltibia 34.9594 -0 0
lfoot -10.8257 7.69312 -0.144349
ltoes -6.97066 0 0
rfemur 11.7399 2.59829 24.7361
rtibia 21.2457 -0 0
rfoot 0.629962 6.21348 -0.243488
rtoes -12.0783 0 0
lowerback -6.41456 2.61201 0.833941
upperback -2.28843 3.37362 2.37105
thorax 1.09315 1.70128 2.21687
lowerneck -17.3134 -6.29385 -14.3322
upperneck 16.0509 -7.98704 15.0351
head 9.10346 -3.1876 6.52785
lclavicle -2.5098e-15 -4.19405e-15 -9.42995e-31
lhumerus -49.6425 -5.81424 91.0675
lradius 22.5837 -0 0
lwrist -1.31806 0 0
lhand -9.1903 -23.2529 -0.0068378
lfingers 7.12502 -0 0
lthumb 16.7634 6.046 -0.00562492
rclavicle -2.5098e-15 -4.19405e-15 -9.42995e-31
rhumerus -41.9989 9.64315 -84.846
rradius 46.0163 -0 0
rwrist -24.2691 0 0
rhand -30.9502 -25.2989 0.0606771
rfingers 7.12502 -0 0
rthumb -4.23489 -55.2278 0.0579044
231
root 9.16703 16.4362 -2.74248 9.28581 -3.898 -3.25726
lfemur -47.1346 6.6225 -20.578
ltibia 35.6438 -0 0
lfoot -10.5399 7.51707 -0.139123
ltoes -6.46461 0 0
rfemur 11.9344 2.49885 24.3917
rtibia 21.8556 -0 0
rfoot 1.51341 6.23171 -0.258602
rtoes -12.2688 0 0
lowerback -6.41883 2.60688 0.744802
upperback -2.36801 3.37491 2.32006
thorax 1.01169 1.70248 2.21312
lowerneck -17.3782 -6.27446 -14.3209
upperneck 16.1213 -7.96011 15.025
head 9.13344 -3.17238 6.52783
lclavicle -4.14539e-15 -4.40009e-15 -8.56987e-31
lhumerus -49.5672 -5.64302 90.8356
lradius 22.3434 -0 0
lwrist -1.8434 0 0
lhand -8.99056 -23.1874 -0.00604304
lfingers 7.12502 -0 0
lthumb 16.9557 6.09515 -0.00493612
rclavicle -4.14539e-15 -4.40009e-15 -8.56987e-31
rhumerus -42.3645 9.54852 -85.0251
rradius 45.5992 -0 0
rwrist -24.0832 0 0
rhand -30.8099 -25.097 0.0591317
rfingers 7.12502 -0 0
rthumb -4.09937 -55.0286 0.056424
232
root 9.20222 16.4306 -2.54699 9.35876 -4.09653 -3.1741
lfemur -47.0743 6.90203 -20.8207
ltibia 36.3144 -0 0
lfoot -10.2607 7.34336 -0.132872
ltoes -5.96667 0 0
rfemur 12.1006 2.40212 24.0482
rtibia 22.468 -0 0
rfoot 2.3717 6.24063 -0.271837
rtoes -12.4617 0 0
lowerback -6.42238 2.59867 0.654742
upperback -2.44529 3.37208 2.27
thorax 0.932489 1.70161 2.21054
lowerneck -17.4441 -6.25445 -14.3087
upperneck 16.1932 -7.93228 15.0133
head 9.16399 -3.15678 6.52729
lclavicle -5.74331e-15 -4.59323e-15 -7.67399e-31
lhumerus -49.4778 -5.48086 90.6083
lradius 22.109 -0 0
lwrist -2.35758 0 0
lhand -8.79588 -23.1228 -0.0053993
lfingers 7.12502 -0 0
lthumb 17.1431 6.14366 -0.00435868
rclavicle -5.74331e-15 -4.59323e-15 -7.67399e-31
rhumerus -42.7264 9.45337 -85.1994
rradius 45.1851 -0 0
rwrist -23.899 0 0
rhand -30.6709 -24.8968 0.0571013
rfingers 7.12502 -0 0
rthumb -3.96518 -54.8312 0.0544818
